<svg id="visual" viewBox="0 0 900 600" width="900" height="600" xmlns="http://www.w3.org/2000/svg" xmlns:xlink="http://www.w3.org/1999/xlink" version="1.1"><g transform="translate(471.8856247000752 241.64743538392304)"><path d="M92.2 -108.4C120.1 -86.4 143.8 -58 165.9 -16.7C188.1 24.5 208.8 78.5 198 130.4C187.2 182.3 144.9 232.1 90.5 254.3C36.1 276.6 -30.3 271.3 -80.9 243.6C-131.5 216 -166.2 166 -197 113.4C-227.8 60.8 -254.7 5.6 -241.1 -37.4C-227.4 -80.3 -173.2 -111 -126.2 -129.6C-79.3 -148.1 -39.6 -154.6 -3.7 -150.1C32.1 -145.6 64.3 -130.3 92.2 -108.4" fill="#fc560e"></path></g></svg>